<svg width="24" height="24" viewBox="0 0 24 24" fill="currentColor" xmlns="http://www.w3.org/2000/svg">
  <path fill-rule="evenodd" clip-rule="evenodd" d="M13.6311 6.05932L13.7216 6.09314L13.815 6.11807L16.726 6.89521C16.7522 6.90221 16.7731 6.92199 16.7816 6.94778L17.7171 9.81181L17.7471 9.90369L17.7859 9.99225L18.9933 12.7527C19.0041 12.7776 19.0017 12.8062 18.9868 12.8289L17.3309 15.3461L17.2778 15.4268L17.2327 15.5123L15.8273 18.1774C15.8146 18.2014 15.7907 18.2174 15.7637 18.2198L12.7633 18.4947L12.667 18.5035L12.5721 18.5215L9.61215 19.0844C9.5855 19.0895 9.55809 19.0807 9.53932 19.0611L7.45373 16.8867L7.38683 16.8169L7.31351 16.7539L5.02796 14.7907C5.00738 14.773 4.99714 14.7461 5.00074 14.7192L5.40047 11.7329L5.4133 11.6371L5.41682 11.5405L5.52672 8.52954C5.52771 8.50243 5.54234 8.47766 5.56561 8.46371L8.14965 6.91429L8.23254 6.86458L8.31026 6.80711L10.7328 5.01573C10.7547 4.9996 10.7832 4.99559 10.8086 5.00508L13.6311 6.05932ZM9.54373 3.40762C10.1097 2.98911 10.849 2.88521 11.5084 3.13151L14.3309 4.18575L17.2419 4.96289C17.922 5.14445 18.4641 5.65763 18.6827 6.32675L19.6183 9.19078L20.8257 11.9512C21.1077 12.5962 21.0445 13.34 20.6577 13.9281L19.295 15.9996C19.3218 16.4908 19.5907 17.2008 20.4247 17.6177C20.5113 17.6611 20.5113 17.7911 20.338 17.7044C19.4965 17.4031 18.7292 17.4427 18.3976 17.591L17.5964 19.1103C17.268 19.733 16.6471 20.1473 15.9461 20.2115L12.9457 20.4863L9.98578 21.0492C9.29426 21.1807 8.58315 20.9535 8.09591 20.4455L6.01032 18.2711L3.72478 16.3078C3.19081 15.8492 2.92503 15.1516 3.01842 14.4539L3.41815 11.4676L3.52805 8.45659C3.55372 7.75315 3.9334 7.11042 4.5371 6.74843L7.12115 5.19901L9.54373 3.40762Z" fill="#667799"/>
</svg>
