<svg width="48" height="16" viewBox="0 0 48 16" fill="none" xmlns="http://www.w3.org/2000/svg">
<path d="M7.68732 0H0V2.24H3.05313V10.2044H0V12.4444H8.50516V10.2044H5.45202V2.24H7.68732V0Z" fill="#2A3551"/>
<path fill-rule="evenodd" clip-rule="evenodd" d="M26.5625 1.6V4.90667H26.2354C25.993 4.42074 25.6599 4.04741 25.2358 3.78667C24.8118 3.51407 24.2363 3.37778 23.5093 3.37778C22.9641 3.37778 22.4432 3.47852 21.9464 3.68C21.4618 3.88148 21.0317 4.17778 20.6561 4.56889C20.2926 4.94815 20.0019 5.4163 19.7838 5.97333C19.5778 6.53037 19.4748 7.16445 19.4748 7.87556V8.19556C19.4748 8.91852 19.5718 9.55852 19.7656 10.1156C19.9716 10.6726 20.2502 11.1467 20.6016 11.5378C20.9651 11.917 21.383 12.2074 21.8556 12.4089C22.3402 12.5985 22.8612 12.6933 23.4185 12.6933C23.8546 12.6933 24.2242 12.6519 24.527 12.5689C24.8421 12.4859 25.1086 12.3733 25.3267 12.2311C25.5569 12.0889 25.7386 11.9289 25.8719 11.7511C26.0173 11.5615 26.1384 11.3659 26.2354 11.1644H26.5625V12.4444H28.8523V1.6H26.5625ZM25.8901 9.90222C25.4539 10.3407 24.8784 10.56 24.1636 10.56C23.4488 10.56 22.8672 10.3467 22.4189 9.92C21.9828 9.48148 21.7647 8.88889 21.7647 8.14222V7.92889C21.7647 7.18222 21.9828 6.59556 22.4189 6.16889C22.8672 5.73037 23.4488 5.51111 24.1636 5.51111C24.8784 5.51111 25.4539 5.7363 25.8901 6.18667C26.3383 6.62519 26.5625 7.20593 26.5625 7.92889V8.14222C26.5625 8.86519 26.3383 9.45185 25.8901 9.90222Z" fill="#5044E4"/>
<path d="M36.418 3.62667H38.7079V14.6133C38.7079 15.0163 38.5746 15.3481 38.308 15.6089C38.0536 15.8696 37.7204 16 37.3085 16H31.9473V13.8667H35.9273C36.2544 13.8667 36.418 13.6889 36.418 13.3333V11.1644H36.0909C35.6911 12.1837 34.8309 12.6933 33.5103 12.6933C33.062 12.6933 32.644 12.6222 32.2563 12.48C31.8686 12.3378 31.5294 12.1185 31.2386 11.8222C30.9478 11.5259 30.7176 11.1585 30.548 10.72C30.3905 10.2696 30.3117 9.74222 30.3117 9.13778V4.71111H32.6016V8.67556C32.6016 9.3037 32.753 9.79556 33.0559 10.1511C33.3588 10.4948 33.8131 10.6667 34.4189 10.6667C35.1095 10.6667 35.6123 10.4533 35.9273 10.0267C36.2544 9.58815 36.418 8.99556 36.418 8.24889V3.62667Z" fill="#5044E4"/>
<path d="M43.2204 6.73778C42.9175 6.60741 42.7661 6.4 42.7661 6.11556C42.7661 5.91408 42.863 5.74815 43.0568 5.61778C43.2507 5.47556 43.5415 5.40444 43.9292 5.40444C44.3532 5.40444 44.6985 5.49926 44.965 5.68889C45.0694 5.75846 45.1616 5.83892 45.2418 5.93028C45.2632 5.95469 45.3063 5.94037 45.3063 5.9082V3.56004C44.9145 3.43853 44.4555 3.37778 43.9292 3.37778C43.493 3.37778 43.069 3.43704 42.657 3.55556C42.2451 3.67407 41.8816 3.85185 41.5666 4.08889C41.2516 4.31407 40.9972 4.59259 40.8033 4.92444C40.6095 5.2563 40.5126 5.64148 40.5126 6.08V6.18667C40.5126 7.02815 40.8094 7.66815 41.4031 8.10667C42.0088 8.53333 42.8206 8.78815 43.8383 8.87111C44.2139 8.90667 44.5228 8.95407 44.7651 9.01333C45.0196 9.07259 45.2195 9.14963 45.3649 9.24445C45.5102 9.32741 45.6072 9.42222 45.6556 9.52889C45.7162 9.62371 45.7465 9.73037 45.7465 9.84889C45.7465 10.0504 45.6375 10.24 45.4194 10.4178C45.2134 10.5837 44.8257 10.6667 44.2563 10.6667C43.6141 10.6667 43.1356 10.5244 42.8206 10.24C42.5177 9.95556 42.3178 9.62371 42.2209 9.24445L40.1127 9.92C40.1733 10.2281 40.2884 10.5481 40.458 10.88C40.6398 11.2 40.8942 11.4963 41.2213 11.7689C41.5484 12.0296 41.9604 12.2489 42.4571 12.4267C42.9539 12.6044 43.5536 12.6933 44.2563 12.6933C45.4436 12.6933 46.3644 12.4326 47.0186 11.9111C47.6729 11.3896 48 10.6904 48 9.81333V9.70667C48 8.91259 47.7092 8.2963 47.1277 7.85778C46.5461 7.40741 45.795 7.13482 44.8742 7.04C44.0745 6.95704 43.5233 6.8563 43.2204 6.73778Z" fill="#5044E4"/>
<path d="M15.7073 12.4444H17.9972V3.62667H15.7073V4.94222H15.3802C15.1742 4.44444 14.8411 4.05926 14.3807 3.78667C13.9203 3.51407 13.3811 3.37778 12.7632 3.37778C12.3271 3.37778 11.9212 3.44889 11.5456 3.59111C11.1579 3.72148 10.8187 3.92889 10.5279 4.21333C10.2371 4.49778 10.013 4.85926 9.85549 5.29778C9.68587 5.7363 9.60106 6.25778 9.60106 6.86222V11.2H11.8909V7.43111C11.8909 6.80296 12.0484 6.31111 12.3634 5.95556C12.6663 5.58815 13.1085 5.40444 13.6901 5.40444C14.3686 5.40444 14.8774 5.62963 15.2167 6.08C15.5438 6.51852 15.7073 7.11111 15.7073 7.85778V12.4444Z" fill="#2A3551"/>
</svg>
